<svg xmlns="http://www.w3.org/2000/svg" xmlns:xlink="http://www.w3.org/1999/xlink" width="376.542" height="343" viewBox="0 0 376.542 343"><defs><style>.a{fill:#e7edf5;}.b{fill:#d8e5fc;}.c{fill:#e1e6fb;}.d{fill:#eaedfb;}.e{fill:#bac5f4;}.f{opacity:0.5;}.g{fill:#fff;}.h{fill:#b0c0f4;}.i,.j{fill:none;stroke:#e1e6fb;stroke-miterlimit:10;stroke-width:4px;}.i{stroke-dasharray:11.72 11.72;}.j{stroke-dasharray:11.57 11.57;}.k{fill:#063793;}.l{fill:url(#a);}.m{fill:url(#b);}.n{fill:url(#c);}.o{fill:url(#d);}.p{opacity:0.07;}.q{fill:url(#e);}</style><linearGradient id="a" x1="3.256" y1="-7.659" x2="2.256" y2="-7.659" gradientUnits="objectBoundingBox"><stop offset="0" stop-color="#5aceed"/><stop offset="1" stop-color="#538bd6"/></linearGradient><linearGradient id="b" y1="0.5" x2="1" y2="0.5" gradientUnits="objectBoundingBox"><stop offset="0" stop-color="#f87b58"/><stop offset="0.5" stop-color="#f8c548"/><stop offset="1" stop-color="#f89c51"/></linearGradient><linearGradient id="c" y1="1.553" x2="1" y2="1.553" gradientUnits="objectBoundingBox"><stop offset="0" stop-color="#009c84"/><stop offset="1" stop-color="#31c6d3"/></linearGradient><linearGradient id="d" x1="0" y1="2.353" x2="1" y2="2.353" xlink:href="#a"/><linearGradient id="e" x1="1" y1="-25.843" x2="0.003" y2="-25.843" gradientUnits="objectBoundingBox"><stop offset="0" stop-color="#59c2e9"/><stop offset="1" stop-color="#5bd3ef"/></linearGradient></defs><g transform="translate(52.169 0.012)"><g transform="translate(-0.002 -0.012)"><path class="a" d="M227.962,61.6c-36.565,36.731-54.595,11.208-77.718,47.088-14.961,23.2-23.718,54.881-14.04,97.081,26.292,114.6,24.247,102.909,59.452,126.288s25.454,61.789,73.383,45.089,107.085,21.714,124.835-40.634-28.26-117.584,5.26-152.035S416.978,43.448,326.253,40.107C275.785,38.248,257.585,31.835,227.962,61.6Z" transform="translate(-111.727 -38.228)"/><path class="b" d="M179.655,201.92c-41.559,25.1-62.049,7.647-88.33,32.19-16.989,15.859-26.957,37.519-15.959,66.361,29.886,78.346,27.562,70.344,67.571,86.336s28.925,42.243,83.4,30.827,121.714,14.841,141.885-27.781-32.123-80.384,5.984-103.937,20.281-96.416-82.821-98.7C234.007,185.962,213.324,181.573,179.655,201.92Z" transform="translate(-70.748 -136.832)"/></g><g transform="translate(72.573 89.512)"><path class="c" d="M255.29,273.915V382.632H419.53l.166-113.206L255.29,269.26Z" transform="translate(-242.989 -269.26)"/><path class="d" d="M218.29,302.915V411.632H382.53l.166-113.206L218.29,298.26Z" transform="translate(-218.29 -288.618)"/><rect class="e" width="4.987" height="4.987" rx="2.494" transform="translate(4.821 18.452)"/><rect class="e" width="4.987" height="4.987" rx="2.494" transform="translate(12.468 18.452)"/><rect class="e" width="4.987" height="4.987" rx="2.494" transform="translate(20.114 18.452)"/><g class="f" transform="translate(8.81 34.743)"><rect class="g" width="0.665" height="33.912"/><rect class="g" width="0.665" height="33.912" transform="translate(2.992)"/><rect class="g" width="0.665" height="33.912" transform="translate(5.652)"/><rect class="g" width="0.665" height="33.912" transform="translate(8.644)"/><rect class="g" width="0.665" height="33.912" transform="translate(11.304)"/><rect class="g" width="0.665" height="33.912" transform="translate(14.296)"/><rect class="g" width="0.665" height="33.912" transform="translate(16.956)"/><rect class="g" width="0.665" height="33.912" transform="translate(19.616)"/><rect class="g" width="0.665" height="33.912" transform="translate(22.275)"/><rect class="g" width="0.665" height="33.912" transform="translate(25.268)"/><rect class="g" width="0.665" height="33.912" transform="translate(27.927)"/><rect class="g" width="0.665" height="33.912" transform="translate(30.92)"/><rect class="g" width="0.665" height="33.912" transform="translate(33.579)"/><rect class="g" width="34.244" height="0.665"/><rect class="g" width="34.244" height="0.665" transform="translate(0 3.325)"/><rect class="g" width="34.244" height="0.665" transform="translate(0 6.649)"/><rect class="g" width="34.244" height="0.665" transform="translate(0 9.974)"/><rect class="g" width="34.244" height="0.665" transform="translate(0 13.299)"/><rect class="g" width="34.244" height="0.665" transform="translate(0 16.623)"/><rect class="g" width="34.244" height="0.665" transform="translate(0 19.948)"/><rect class="g" width="34.244" height="0.665" transform="translate(0 23.273)"/><rect class="g" width="34.244" height="0.665" transform="translate(0 26.598)"/><rect class="g" width="34.244" height="0.665" transform="translate(0 29.922)"/><rect class="g" width="34.244" height="0.665" transform="translate(0 33.247)"/><g transform="translate(41.891 42.556)"><rect class="g" width="0.665" height="33.912"/><rect class="g" width="0.665" height="33.912" transform="translate(2.992)"/><rect class="g" width="0.665" height="33.912" transform="translate(5.652)"/><rect class="g" width="0.665" height="33.912" transform="translate(8.644)"/><rect class="g" width="0.665" height="33.912" transform="translate(11.304)"/><rect class="g" width="0.665" height="33.912" transform="translate(14.296)"/><rect class="g" width="0.665" height="33.912" transform="translate(16.956)"/><rect class="g" width="0.665" height="33.912" transform="translate(19.616)"/><rect class="g" width="0.665" height="33.912" transform="translate(22.275)"/><rect class="g" width="0.665" height="33.912" transform="translate(25.268)"/><rect class="g" width="0.665" height="33.912" transform="translate(27.927)"/><rect class="g" width="0.665" height="33.912" transform="translate(30.92)"/><rect class="g" width="0.665" height="33.912" transform="translate(33.579)"/><rect class="g" width="34.244" height="0.665"/><rect class="g" width="34.244" height="0.665" transform="translate(0 3.325)"/><rect class="g" width="34.244" height="0.665" transform="translate(0 6.649)"/><rect class="g" width="34.244" height="0.665" transform="translate(0 9.974)"/><rect class="g" width="34.244" height="0.665" transform="translate(0 13.299)"/><rect class="g" width="34.244" height="0.665" transform="translate(0 16.623)"/><rect class="g" width="34.244" height="0.665" transform="translate(0 19.948)"/><rect class="g" width="34.244" height="0.665" transform="translate(0 23.273)"/><rect class="g" width="34.244" height="0.665" transform="translate(0 26.598)"/><rect class="g" width="34.244" height="0.665" transform="translate(0 29.922)"/><rect class="g" width="34.244" height="0.665" transform="translate(0 33.247)"/></g><g transform="translate(79.46 3.657)"><rect class="g" width="0.665" height="33.912"/><rect class="g" width="0.665" height="33.912" transform="translate(2.992)"/><rect class="g" width="0.665" height="33.912" transform="translate(5.652)"/><rect class="g" width="0.665" height="33.912" transform="translate(8.644)"/><rect class="g" width="0.665" height="33.912" transform="translate(11.304)"/><rect class="g" width="0.665" height="33.912" transform="translate(14.296)"/><rect class="g" width="0.665" height="33.912" transform="translate(16.956)"/><rect class="g" width="0.665" height="33.912" transform="translate(19.616)"/><rect class="g" width="0.665" height="33.912" transform="translate(22.275)"/><rect class="g" width="0.665" height="33.912" transform="translate(25.268)"/><rect class="g" width="0.665" height="33.912" transform="translate(27.927)"/><rect class="g" width="0.665" height="33.912" transform="translate(30.92)"/><rect class="g" width="0.665" height="33.912" transform="translate(33.579)"/><rect class="g" width="34.244" height="0.665"/><rect class="g" width="34.244" height="0.665" transform="translate(0 3.325)"/><rect class="g" width="34.244" height="0.665" transform="translate(0 6.649)"/><rect class="g" width="34.244" height="0.665" transform="translate(0 9.974)"/><rect class="g" width="34.244" height="0.665" transform="translate(0 13.299)"/><rect class="g" width="34.244" height="0.665" transform="translate(0 16.623)"/><rect class="g" width="34.244" height="0.665" transform="translate(0 19.948)"/><rect class="g" width="34.244" height="0.665" transform="translate(0 23.273)"/><rect class="g" width="34.244" height="0.665" transform="translate(0 26.598)"/><rect class="g" width="34.244" height="0.665" transform="translate(0 29.922)"/><rect class="g" width="34.244" height="0.665" transform="translate(0 33.247)"/></g></g><rect class="e" width="48.873" height="33.912" transform="translate(25.101 45.382)"/><rect class="c" width="48.873" height="33.912" transform="translate(30.088 49.704)"/><rect class="g" width="27.927" height="0.665" transform="translate(40.063 54.359)"/><rect class="g" width="22.94" height="0.665" transform="translate(40.063 56.021)"/><rect class="g" width="30.255" height="0.665" transform="translate(40.063 57.351)"/><rect class="g" width="13.299" height="0.665" transform="translate(40.063 61.673)"/><rect class="g" width="20.281" height="0.665" transform="translate(40.063 63.335)"/><rect class="g" width="18.951" height="0.665" transform="translate(40.063 64.665)"/><rect class="g" width="13.299" height="0.665" transform="translate(40.063 69.32)"/><rect class="g" width="20.281" height="0.665" transform="translate(40.063 70.982)"/><rect class="g" width="18.951" height="0.665" transform="translate(40.063 72.312)"/><circle class="g" cx="2.161" cy="2.161" r="2.161" transform="translate(33.746 54.026)"/><circle class="g" cx="2.161" cy="2.161" r="2.161" transform="translate(33.746 61.008)"/><circle class="g" cx="2.161" cy="2.161" r="2.161" transform="translate(34.078 68.987)"/><rect class="g" width="24.27" height="0.665" transform="translate(129.829 49.704)"/><rect class="g" width="24.27" height="0.665" transform="translate(129.829 53.361)"/><rect class="g" width="24.27" height="0.665" transform="translate(129.829 57.018)"/><rect class="g" width="24.27" height="0.665" transform="translate(129.829 60.676)"/><rect class="g" width="24.27" height="0.665" transform="translate(129.829 64.333)"/><rect class="g" width="24.27" height="0.665" transform="translate(129.829 67.99)"/><rect class="g" width="24.27" height="0.665" transform="translate(129.829 71.647)"/><rect class="g" width="24.27" height="0.665" transform="translate(129.829 75.304)"/><rect class="g" width="24.27" height="0.665" transform="translate(129.829 78.961)"/><rect class="g" width="152.271" height="0.665" transform="translate(3.823 26.099)"/><circle class="g" cx="7.481" cy="7.481" r="7.481" transform="translate(134.484 30.753)"/></g><g transform="translate(229.548 145.201)"><path class="c" d="M773.139,475h39.088a1.227,1.227,0,0,1,1.22,1.36l-2.723,24.809a1.23,1.23,0,0,1-1.22,1.094H770.416a1.227,1.227,0,0,1-1.22-1.36l2.723-24.809A1.227,1.227,0,0,1,773.139,475Z" transform="translate(-766.529 -475)"/><path class="g" d="M765.138,475h39.088a1.227,1.227,0,0,1,1.22,1.36l-2.723,24.809a1.23,1.23,0,0,1-1.22,1.094H762.416a1.227,1.227,0,0,1-1.22-1.36l2.723-24.809A1.227,1.227,0,0,1,765.138,475Z" transform="translate(-761.188 -475)"/><path class="e" d="M700.79,437.09l16.032,14.851L740.9,437.09Z" transform="translate(-697.348 -436.98)"/></g><g transform="translate(151.846 220.498)"><path class="e" d="M589.035,760.627l-47.3-.16c-1.237,0-2.237-.06-2.234-1.3l.023-6.317c0-1.224,1-1.044,2.214-1.057l46.994-.472a5.839,5.839,0,0,1,3.2.332c2.188.938,3.757,6.686-.9,8.664A8.773,8.773,0,0,1,589.035,760.627Z" transform="translate(-535.503 -734.694)"/><path class="g" d="M540.278,761.874l12.657.047a.781.781,0,0,0,.781-.778v-5.007a.781.781,0,0,0-.778-.781l-12.654-.043a2.54,2.54,0,0,0-.778.037l-.007,6.5A5.7,5.7,0,0,0,540.278,761.874Z" transform="translate(-535.503 -737.404)"/><path class="d" d="M544.5,725.1h47.3c1.237,0,2.241.053,2.241,1.29v6.317c0,1.224-1,1.047-2.211,1.064l-46.995.638a13.1,13.1,0,0,1-3.1-.788c-2.254-.765-3.883-6.194.771-8.189a8.772,8.772,0,0,1,1.995-.333Z" transform="translate(-535.515 -717.247)"/><path class="h" d="M674.185,728.985H661.531a.781.781,0,0,0-.781.778v5.01a.781.781,0,0,0,.781.778h12.654a2.6,2.6,0,0,0,.778-.04V729a5.118,5.118,0,0,0-.778-.017Z" transform="translate(-616.441 -719.835)"/><path class="e" d="M532.459,701.48h47.3c1.24,0,2.241.05,2.241,1.287v6.317c0,1.227-1,1.047-2.211,1.064l-46.995.638a13.336,13.336,0,0,1-3.1-.791c-2.254-.761-3.883-6.191.771-8.185A8.6,8.6,0,0,1,532.459,701.48Z" transform="translate(-527.478 -701.48)"/><path class="g" d="M662.152,705.342H649.5a.778.778,0,0,0-.778.781v5.007a.774.774,0,0,0,.778.778h12.654a2.818,2.818,0,0,0,.778-.037v-6.506A5.719,5.719,0,0,0,662.152,705.342Z" transform="translate(-608.411 -704.055)"/></g><g transform="translate(47.472 186.447)"><circle class="i" cx="22.319" cy="22.319" r="22.319"/><rect class="c" width="7.883" height="2.474" rx="1.237" transform="translate(18.376 42.982)"/><circle class="c" cx="19.782" cy="19.782" r="19.782" transform="translate(2.653 2.42)"/><rect class="c" width="1.603" height="95.139" transform="translate(21.63 44.637)"/><circle class="j" cx="17.142" cy="17.142" r="17.142" transform="translate(8.814 74.054) rotate(-45)"/><rect class="c" width="6.054" height="1.898" rx="0.949" transform="translate(30.029 89.926)"/><rect class="c" width="18.126" height="1.898" rx="0.949" transform="translate(18.602 139.777)"/><rect class="c" width="26.88" height="1.898" rx="0.949" transform="translate(14.057 141.439)"/><circle class="c" cx="15.194" cy="15.194" r="15.194" transform="translate(17.953 58.771)"/><rect class="c" width="1.603" height="95.139" transform="translate(32.293 44.637)"/></g><g transform="translate(193.838 219.941)"><path class="e" d="M657.122,770.283a3.524,3.524,0,0,0,.765,5.25c10.912,7.058,47.6,27.848,77.8,10.46,35.907-20.68,51.124-75.534,50.263-80.7s-18.668-6.174-48.54-5.1,3.724,53.348-30.454,58.229-25.268-9.189-36.189-.861A89.915,89.915,0,0,0,657.122,770.283Z" transform="translate(-655.446 -699.804)"/><path class="h" d="M718.49,782.409s45.08,11.892,46.383-14.123c1.805-36.266,9.329-33.274,8.764-10.137s-.216,24.935-10.971,29.507c-9.266,3.94-17.036,4.635-29.5,2.128C722.982,787.735,718.49,782.409,718.49,782.409Z" transform="translate(-696.976 -727.21)"/><rect class="e" width="2.43" height="17.807" transform="matrix(0.792, 0.611, -0.611, 0.792, 14.227, 78.891)"/><circle class="h" cx="3.398" cy="3.398" r="3.398" transform="translate(0 91.76)"/><rect class="e" width="2.43" height="17.807" transform="translate(37.301 87.818) rotate(30)"/><circle class="h" cx="3.398" cy="3.398" r="3.398" transform="translate(25.504 102.033)"/><rect class="e" width="2.43" height="21.654" transform="matrix(0.769, -0.639, 0.639, 0.769, 77.883, 86.064)"/><circle class="h" cx="3.398" cy="3.398" r="3.398" transform="translate(90.196 100.122)"/><rect class="e" width="2.43" height="21.654" transform="matrix(0.769, -0.639, 0.639, 0.769, 52.046, 78.252)"/><circle class="h" cx="3.398" cy="3.398" r="3.398" transform="translate(64.359 92.312)"/></g></g><g transform="translate(-121.91 86.515)"><g transform="translate(121.91)"><g transform="translate(59.733 214.618)"><path class="k" d="M321.471,401.5c-3.414-5.671-6.134-7.175-14.582-7.407s-19.674-.116-19.674-.116l-.116,11.978s9.316,5.381,14.292,8.043c.289.174,1.1.637,1.678.984a15.274,15.274,0,0,0,2.72.984c4.918,1.042,9.374.521,12.557-2.662C321.876,409.776,324.885,407.172,321.471,401.5Z" transform="translate(-251.247 -380.612)"/><path class="k" d="M231.655,381.142c-.289.231-1.042.81-1.562,1.215a16.819,16.819,0,0,0-1.91,2.141c-2.777,4.166-3.993,8.506-2.2,12.672,1.967,4.571,3.3,8.39,9.779,7.291s8.969-3.067,12.325-10.763,7.464-18.227,7.407-18.227L244.443,370.9S236,377.554,231.655,381.142Z" transform="translate(-225.139 -370.9)"/></g><path class="l" d="M218.364,365.761s.174,12.094-1.794,12.383-29.106-3.645-39.926-4.224-35.355-7.58-47.391-21.178c-10.416-11.746-8.8-24.766-1.1-24.766s14.755-6.539,34.313,2.777,40.273,10.878,51.9,9.953,44.208-6.944,46.754-8.8,14.755-7.175,31.767-5.324,8.969,15.334,5.381,20.542c-5.034,7.233-16.954,14.987-26.907,15.334S218.364,365.761,218.364,365.761Z" transform="translate(-121.91 -137.256)"/><path class="m" d="M242.929,22.616C237.2,24.7,229.91,53.053,229.91,53.053l-.116-.116-.81,3.935L228,62.022l1.909,30.784,18.517,9.258,42.53,11.457L302.7,130.243s26.328,26.791,26.5,28.643-28.3,11.283-31.015,11.689c-6.539.984,41.836-10.878,26.328-29.684-6.6-8.043-16.26-32.23-35.413-48.259-11.11-9.258-7.985-35.586-11.92-52.251-4.918-20.831-7.927-27.08-12.846-27.08-4.456,0-10.647,5.323-21.41,9.316" transform="translate(-166.612 -5.604)"/><path class="n" d="M271.836,139.486c-8.911-8.159-11.92-10.126-19.732-7.349s-11.631,5.323-22.278,7.059a33.768,33.768,0,0,1-19.384-2.372l-21.93,2.2c-2.777-.347-33.966,58.211-34.718,70.363-.463,7.464,16.491,18.979,21.236,20.137,1.909.463,5.323-17.938,6.423-19.616l-7.117-2.2a116.222,116.222,0,0,1,8.39-15.276c.868-1.331,7.638-12.5,8.564-16.781.174.405,1.157,8.506,2.083,11.11,1.736,4.8,4.108,7.522,4.108,11.341s-.463,18.979-3.24,25.807-6.828,22.625-6.828,22.625l70.131-.405s-2.546-30.147-1.5-40.5c0,0-1.1-4.166.984-10.184,3.414-9.953,4.4-24.766,3.819-27.08-.868-3.645,20.6,27.2,25.287,35.008,1.967,3.24-24.708,8.969-26.907,11.457-2.315,2.6,2.257,9.663,2.257,9.663S308,218.817,307.769,211.7,282.193,148.917,271.836,139.486Z" transform="translate(-135.34 -55.178)"/><path class="o" d="M239.735.347a18.913,18.913,0,0,0-16.781,14.177c-3.761,13.656-4.282,32.693-4.4,35.644-.116,3.125,1.331,21.41-5.671,29.048-6.018,6.6-3.588,12.962-5.092,18.227l-.694,8.737a2.764,2.764,0,0,0,1.852,2.257c.926.289,4.166-1.215,4.745-1.447,8.1-3.24,8.1-5.844,11.168-8.448,2.546-2.141,9.548-7.117,11.631-9.085s3.53-3.7,3.645-6.191c.405-12.672-1.794-24.361-4.571-30.552s-8.1-16.665-3.645-23.609,12.5-13.887,12.962-15.623.694,6.712,5.613,9.663,9.027,7.059,10.531,11.052c1.273,3.356,2.951,9.085-1.678,18.979S250.961,75.8,257.5,85.234s20.31,19.616,22.567,24.361c2.546,5.266.116,17.649-.347,25.113s14.582-12.962,14.119-22.683S295,98.137,285.679,83.208s-15.392-40.5-15.623-46.7-3.009-23.377-8.622-28.3C256.574,4.05,255.532,0,245.58,0a48.769,48.769,0,0,0-5.844.347" transform="translate(-157.806)"/><path class="p" d="M212.2,358.2l65.734.347s-7.7,6.018-11.4,6.712-19.558,8.564-25.46,5.555C236.908,368.558,212.2,358.2,212.2,358.2Z" transform="translate(-159.955 -150.931)"/><path class="p" d="M275.5,99.6s6.134,1.562,8.68-2.025c5.729-8.1.521,4.108.521,4.108s-1.678,4.745-1.562,7.117-6.6-8.853-7.638-9.2" transform="translate(-186.627 -39.946)"/><path class="p" d="M227.351,165.977a8.228,8.228,0,0,0-2.43,4.05c-.984,3.819-2.025,8.1-4.687,12.036-1.562,2.315-.694,11.283,1.91,16.954.752,1.62,3.067,5.844,3.009,6.828l-.174,8.217h7.059s6.018.637,4.745-4.34c-1.1-4.4-6.828-20.773-2.951-24.361,7.291-6.654-1.91-19.963,1.5-24.245,2.951-3.7,7.175-6.365,7.175-7.58,0-.463-1.1,1.042-1.852,1.562-1.447,1.042-2.2,1.852-3.414,2.662-1.331.868-3.356,2.315-4.687,3.3A32.2,32.2,0,0,0,227.351,165.977Z" transform="translate(-163.012 -64.657)"/></g><g transform="translate(158.531 149.483)"><path class="g" d="M185.431,262.886s-.058-4.282,4.166-4.456,93.682-.058,93.682-.058,3.935.463,4.05,3.645.116,50.457.116,50.457a3.707,3.707,0,0,1-3.819,3.761c-3.877.116-95.071.116-95.071.116s-3.414-.868-3.356-4.282S185.431,262.886,185.431,262.886Z" transform="translate(-185.199 -258.335)"/><circle class="q" cx="3.877" cy="3.877" r="3.877" transform="translate(47.623 25.151)"/></g></g></svg>