<svg width="20" height="20" viewBox="0 0 20 20" fill="none" xmlns="http://www.w3.org/2000/svg">
<path fill-rule="evenodd" clip-rule="evenodd" d="M19.1666 14.1666C19.1666 14.6666 18.8333 15 18.3333 15H1.66659C1.16659 15 0.833252 14.6666 0.833252 14.1666C0.833252 13.6666 1.16659 13.3333 1.66659 13.3333C2.58325 13.3333 3.33325 12.5833 3.33325 11.6666V7.49998C3.33325 3.83331 6.33325 0.833313 9.99992 0.833313C13.6666 0.833313 16.6666 3.83331 16.6666 7.49998V11.6666C16.6666 12.5833 17.4166 13.3333 18.3333 13.3333C18.8333 13.3333 19.1666 13.6666 19.1666 14.1666ZM12.1666 17.9166C11.6666 18.75 10.8333 19.1666 9.99992 19.1666C9.58325 19.1666 9.16658 19.0833 8.74992 18.8333C8.33325 18.5833 8.08325 18.3333 7.83325 17.9166C7.58325 17.5 7.74992 17 8.16658 16.75C8.58325 16.5 9.08325 16.6666 9.33325 17.0833C9.35848 17.1085 9.38371 17.1414 9.41126 17.1773C9.47469 17.2599 9.55038 17.3585 9.66658 17.4166C10.0833 17.6666 10.5833 17.5 10.8333 17.0833C11.0833 16.6666 11.5833 16.5833 11.9999 16.75C12.4166 16.9166 12.4166 17.5 12.1666 17.9166ZM14.9999 11.6666C14.9999 12.25 15.1666 12.8333 15.4166 13.3333H4.58325C4.83325 12.8333 4.99992 12.25 4.99992 11.6666V7.49998C4.99992 4.74998 7.24992 2.49998 9.99992 2.49998C12.7499 2.49998 14.9999 4.74998 14.9999 7.49998V11.6666Z" fill="black"/>
<mask id="mask0_18_2400" style="mask-type:alpha" maskUnits="userSpaceOnUse" x="0" y="0" width="20" height="20">
<path fill-rule="evenodd" clip-rule="evenodd" d="M19.1666 14.1666C19.1666 14.6666 18.8333 15 18.3333 15H1.66659C1.16659 15 0.833252 14.6666 0.833252 14.1666C0.833252 13.6666 1.16659 13.3333 1.66659 13.3333C2.58325 13.3333 3.33325 12.5833 3.33325 11.6666V7.49998C3.33325 3.83331 6.33325 0.833313 9.99992 0.833313C13.6666 0.833313 16.6666 3.83331 16.6666 7.49998V11.6666C16.6666 12.5833 17.4166 13.3333 18.3333 13.3333C18.8333 13.3333 19.1666 13.6666 19.1666 14.1666ZM12.1666 17.9166C11.6666 18.75 10.8333 19.1666 9.99992 19.1666C9.58325 19.1666 9.16658 19.0833 8.74992 18.8333C8.33325 18.5833 8.08325 18.3333 7.83325 17.9166C7.58325 17.5 7.74992 17 8.16658 16.75C8.58325 16.5 9.08325 16.6666 9.33325 17.0833C9.35848 17.1085 9.38371 17.1414 9.41126 17.1773C9.47469 17.2599 9.55038 17.3585 9.66658 17.4166C10.0833 17.6666 10.5833 17.5 10.8333 17.0833C11.0833 16.6666 11.5833 16.5833 11.9999 16.75C12.4166 16.9166 12.4166 17.5 12.1666 17.9166ZM14.9999 11.6666C14.9999 12.25 15.1666 12.8333 15.4166 13.3333H4.58325C4.83325 12.8333 4.99992 12.25 4.99992 11.6666V7.49998C4.99992 4.74998 7.24992 2.49998 9.99992 2.49998C12.7499 2.49998 14.9999 4.74998 14.9999 7.49998V11.6666Z" fill="white"/>
</mask>
<g mask="url(#mask0_18_2400)">
<rect width="20" height="20" fill="#6E6B7B"/>
</g>
</svg>
